<svg width="20" height="21" viewBox="0 0 20 21" fill="none" xmlns="http://www.w3.org/2000/svg">
<path d="M17 2.33325H15V1.33325C15 1.06804 14.8946 0.813681 14.7071 0.626145C14.5196 0.438609 14.2652 0.333252 14 0.333252C13.7348 0.333252 13.4804 0.438609 13.2929 0.626145C13.1054 0.813681 13 1.06804 13 1.33325V2.33325H7V1.33325C7 1.06804 6.89464 0.813681 6.70711 0.626145C6.51957 0.438609 6.26522 0.333252 6 0.333252C5.73478 0.333252 5.48043 0.438609 5.29289 0.626145C5.10536 0.813681 5 1.06804 5 1.33325V2.33325H3C2.20435 2.33325 1.44129 2.64932 0.87868 3.21193C0.316071 3.77454 0 4.5376 0 5.33325V17.3333C0 18.1289 0.316071 18.892 0.87868 19.4546C1.44129 20.0172 2.20435 20.3333 3 20.3333H17C17.7956 20.3333 18.5587 20.0172 19.1213 19.4546C19.6839 18.892 20 18.1289 20 17.3333V5.33325C20 4.5376 19.6839 3.77454 19.1213 3.21193C18.5587 2.64932 17.7956 2.33325 17 2.33325ZM18 17.3333C18 17.5985 17.8946 17.8528 17.7071 18.0404C17.5196 18.2279 17.2652 18.3333 17 18.3333H3C2.73478 18.3333 2.48043 18.2279 2.29289 18.0404C2.10536 17.8528 2 17.5985 2 17.3333V10.3333H18V17.3333ZM18 8.33325H2V5.33325C2 5.06804 2.10536 4.81368 2.29289 4.62615C2.48043 4.43861 2.73478 4.33325 3 4.33325H5V5.33325C5 5.59847 5.10536 5.85282 5.29289 6.04036C5.48043 6.22789 5.73478 6.33325 6 6.33325C6.26522 6.33325 6.51957 6.22789 6.70711 6.04036C6.89464 5.85282 7 5.59847 7 5.33325V4.33325H13V5.33325C13 5.59847 13.1054 5.85282 13.2929 6.04036C13.4804 6.22789 13.7348 6.33325 14 6.33325C14.2652 6.33325 14.5196 6.22789 14.7071 6.04036C14.8946 5.85282 15 5.59847 15 5.33325V4.33325H17C17.2652 4.33325 17.5196 4.43861 17.7071 4.62615C17.8946 4.81368 18 5.06804 18 5.33325V8.33325Z" fill="url(#paint0_linear_1428_40283)"/>
<defs>
<linearGradient id="paint0_linear_1428_40283" x1="0" y1="10.3333" x2="20" y2="10.3333" gradientUnits="userSpaceOnUse">
<stop stop-color="#EB0030"/>
<stop offset="1" stop-color="#0079C4"/>
</linearGradient>
</defs>
</svg>
