<svg width="36" height="36" viewBox="0 0 36 36" fill="none" xmlns="http://www.w3.org/2000/svg">
<rect width="36" height="36" rx="18" fill="#00ACA2"/>
<path d="M23.5917 14.0085C23.5142 13.9304 23.4221 13.8684 23.3205 13.8261C23.219 13.7837 23.11 13.762 23 13.762C22.89 13.762 22.7811 13.7837 22.6796 13.8261C22.578 13.8684 22.4858 13.9304 22.4084 14.0085L16.2 20.2251L13.5917 17.6085C13.5113 17.5308 13.4163 17.4697 13.3123 17.4287C13.2082 17.3877 13.0971 17.3676 12.9853 17.3695C12.8735 17.3714 12.7631 17.3954 12.6606 17.4399C12.558 17.4845 12.4652 17.5489 12.3875 17.6293C12.3098 17.7097 12.2487 17.8047 12.2077 17.9087C12.1667 18.0128 12.1466 18.1239 12.1486 18.2357C12.1505 18.3475 12.1744 18.4579 12.219 18.5604C12.2636 18.663 12.3279 18.7558 12.4084 18.8335L15.6084 22.0335C15.6858 22.1116 15.778 22.1736 15.8796 22.2159C15.9811 22.2582 16.09 22.28 16.2 22.28C16.3101 22.28 16.419 22.2582 16.5205 22.2159C16.6221 22.1736 16.7142 22.1116 16.7917 22.0335L23.5917 15.2335C23.6763 15.1554 23.7438 15.0607 23.79 14.9553C23.8361 14.8499 23.86 14.736 23.86 14.621C23.86 14.5059 23.8361 14.392 23.79 14.2866C23.7438 14.1812 23.6763 14.0865 23.5917 14.0085Z" fill="#FAFAFA"/>
</svg>
