<svg width="100" height="101" viewBox="0 0 100 101" fill="none" xmlns="http://www.w3.org/2000/svg">
<g clip-path="url(#clip0_1428_40285)">
<path d="M45.0904 47.7695C46.5167 47.7695 47.6837 46.6025 47.6837 45.1762C47.6837 43.7499 46.5167 42.5829 45.0904 42.5829C43.6641 42.5829 42.4971 43.7499 42.4971 45.1762C42.4971 46.6025 43.6641 47.7695 45.0904 47.7695Z" fill="#FBCCD6"/>
<path d="M42.4971 33.9021C42.4971 35.3284 43.6641 36.4954 45.0904 36.4954C46.5167 36.4954 47.6837 35.3284 47.6837 33.9021C47.6837 32.4757 46.5167 31.3088 45.0904 31.3088C43.6641 31.3094 42.4971 32.4764 42.4971 33.9021Z" fill="#FBCCD6"/>
<path d="M16.7225 92.395H0.000572205C0.000572205 75.615 13.6032 62.0124 30.3832 62.0124V78.7343C22.8382 78.7343 16.7225 84.8506 16.7225 92.395Z" fill="#FFA02A"/>
<path d="M100.022 100.778H60.9703V62.012H100.022V100.778Z" fill="#0079C4"/>
<path d="M45.8864 62.0263C54.2765 62.0817 61.0331 68.9278 60.9778 77.3176C60.9224 85.7074 54.076 92.4637 45.6859 92.4084C37.2958 92.353 30.5391 85.5069 30.5945 77.1171C30.6499 68.7273 37.4963 61.971 45.8864 62.0263Z" fill="#009FFF"/>
<path d="M91.3528 29.8444C91.3528 29.0169 90.6825 28.3465 89.855 28.3465C89.0281 28.3465 88.3571 29.0169 88.3571 29.8444C88.3571 30.6713 89.0275 31.3423 89.855 31.3423C90.6819 31.3423 91.3528 30.6719 91.3528 29.8444Z" fill="#FAFAFA"/>
<path d="M84.9399 29.8444C84.9399 29.0169 84.2695 28.3465 83.442 28.3465C82.6145 28.3465 81.9441 29.0169 81.9441 29.8444C81.9441 30.6713 82.6145 31.3423 83.442 31.3423C84.2695 31.3423 84.9399 30.6719 84.9399 29.8444Z" fill="#FAFAFA"/>
<path d="M78.5276 29.8444C78.5276 29.0169 77.8572 28.3465 77.0297 28.3465C76.2022 28.3465 75.5318 29.0169 75.5318 29.8444C75.5318 30.6713 76.2022 31.3423 77.0297 31.3423C77.8566 31.3423 78.5276 30.6719 78.5276 29.8444Z" fill="#FAFAFA"/>
<path d="M72.1152 29.8444C72.1152 29.0169 71.4449 28.3465 70.6174 28.3465C69.7904 28.3465 69.1195 29.0169 69.1195 29.8444C69.1195 30.6713 69.7898 31.3423 70.6174 31.3423C71.4443 31.3423 72.1152 30.6719 72.1152 29.8444Z" fill="#FAFAFA"/>
<path d="M65.7023 29.8444C65.7023 29.0169 65.032 28.3465 64.2044 28.3465C63.3775 28.3465 62.7066 29.0169 62.7066 29.8444C62.7066 30.6713 63.3769 31.3423 64.2044 31.3423C65.0314 31.3423 65.7023 30.6719 65.7023 29.8444Z" fill="#FAFAFA"/>
<path d="M91.3528 24.3674C91.3528 23.5404 90.6825 22.8695 89.855 22.8695C89.0281 22.8695 88.3571 23.5398 88.3571 24.3674C88.3571 25.1949 89.0275 25.8652 89.855 25.8652C90.6819 25.8652 91.3528 25.1943 91.3528 24.3674Z" fill="#FAFAFA"/>
<path d="M84.9399 24.3674C84.9399 23.5404 84.2695 22.8695 83.442 22.8695C82.6145 22.8695 81.9441 23.5398 81.9441 24.3674C81.9441 25.1949 82.6145 25.8652 83.442 25.8652C84.2695 25.8652 84.9399 25.1943 84.9399 24.3674Z" fill="#FAFAFA"/>
<path d="M78.5276 24.3674C78.5276 23.5404 77.8572 22.8695 77.0297 22.8695C76.2022 22.8695 75.5318 23.5398 75.5318 24.3674C75.5318 25.1949 76.2022 25.8652 77.0297 25.8652C77.8566 25.8652 78.5276 25.1943 78.5276 24.3674Z" fill="#FAFAFA"/>
<path d="M72.1152 24.3674C72.1152 23.5404 71.4449 22.8695 70.6174 22.8695C69.7904 22.8695 69.1195 23.5398 69.1195 24.3674C69.1195 25.1949 69.7898 25.8652 70.6174 25.8652C71.4443 25.8652 72.1152 25.1943 72.1152 24.3674Z" fill="#FAFAFA"/>
<path d="M65.7023 24.3674C65.7023 23.5404 65.032 22.8695 64.2044 22.8695C63.3775 22.8695 62.7066 23.5398 62.7066 24.3674C62.7066 25.1949 63.3769 25.8652 64.2044 25.8652C65.0314 25.8652 65.7023 25.1943 65.7023 24.3674Z" fill="#FAFAFA"/>
<path d="M91.3528 18.8898C91.3528 18.0629 90.6825 17.3919 89.855 17.3919C89.0281 17.3919 88.3571 18.0623 88.3571 18.8898C88.3571 19.7167 89.0275 20.3877 89.855 20.3877C90.6819 20.3877 91.3528 19.7174 91.3528 18.8898Z" fill="#FAFAFA"/>
<path d="M84.9399 18.8898C84.9399 18.0629 84.2695 17.3919 83.442 17.3919C82.6145 17.3919 81.9441 18.0623 81.9441 18.8898C81.9441 19.7167 82.6145 20.3877 83.442 20.3877C84.2695 20.3877 84.9399 19.7174 84.9399 18.8898Z" fill="#FAFAFA"/>
<path d="M78.5276 18.8898C78.5276 18.0629 77.8572 17.3919 77.0297 17.3919C76.2022 17.3919 75.5318 18.0623 75.5318 18.8898C75.5318 19.7167 76.2022 20.3877 77.0297 20.3877C77.8566 20.3877 78.5276 19.7174 78.5276 18.8898Z" fill="#FAFAFA"/>
<path d="M72.1152 18.8898C72.1152 18.0629 71.4449 17.3919 70.6174 17.3919C69.7904 17.3919 69.1195 18.0623 69.1195 18.8898C69.1195 19.7167 69.7898 20.3877 70.6174 20.3877C71.4443 20.3877 72.1152 19.7174 72.1152 18.8898Z" fill="#FAFAFA"/>
<path d="M65.7023 18.8898C65.7023 18.0629 65.032 17.3919 64.2044 17.3919C63.3775 17.3919 62.7066 18.0623 62.7066 18.8898C62.7066 19.7167 63.3769 20.3877 64.2044 20.3877C65.0314 20.3877 65.7023 19.7174 65.7023 18.8898Z" fill="#FAFAFA"/>
<path d="M91.3528 13.4125C91.3528 12.585 90.6825 11.9146 89.855 11.9146C89.0281 11.9146 88.3571 12.585 88.3571 13.4125C88.3571 14.2394 89.0275 14.9104 89.855 14.9104C90.6819 14.9104 91.3528 14.2394 91.3528 13.4125Z" fill="#FAFAFA"/>
<path d="M84.9399 13.4125C84.9399 12.585 84.2695 11.9146 83.442 11.9146C82.6145 11.9146 81.9441 12.585 81.9441 13.4125C81.9441 14.2394 82.6145 14.9104 83.442 14.9104C84.2695 14.9104 84.9399 14.2394 84.9399 13.4125Z" fill="#FAFAFA"/>
<path d="M78.5276 13.4125C78.5276 12.585 77.8572 11.9146 77.0297 11.9146C76.2022 11.9146 75.5318 12.585 75.5318 13.4125C75.5318 14.2394 76.2022 14.9104 77.0297 14.9104C77.8566 14.9104 78.5276 14.2394 78.5276 13.4125Z" fill="#FAFAFA"/>
<path d="M72.1152 13.4125C72.1152 12.585 71.4449 11.9146 70.6174 11.9146C69.7904 11.9146 69.1195 12.585 69.1195 13.4125C69.1195 14.2394 69.7898 14.9104 70.6174 14.9104C71.4443 14.9104 72.1152 14.2394 72.1152 13.4125Z" fill="#FAFAFA"/>
<path d="M65.7023 13.4125C65.7023 12.585 65.032 11.9146 64.2044 11.9146C63.3775 11.9146 62.7066 12.585 62.7066 13.4125C62.7066 14.2394 63.3769 14.9104 64.2044 14.9104C65.0314 14.9104 65.7023 14.2394 65.7023 13.4125Z" fill="#FAFAFA"/>
<path d="M91.3528 7.93474C91.3528 7.1072 90.6825 6.43685 89.855 6.43685C89.0281 6.43685 88.3571 7.1072 88.3571 7.93474C88.3571 8.76166 89.0275 9.43262 89.855 9.43262C90.6819 9.43262 91.3528 8.76227 91.3528 7.93474Z" fill="#FAFAFA"/>
<path d="M84.9399 7.93474C84.9399 7.1072 84.2695 6.43685 83.442 6.43685C82.6145 6.43685 81.9441 7.1072 81.9441 7.93474C81.9441 8.76166 82.6145 9.43262 83.442 9.43262C84.2695 9.43262 84.9399 8.76227 84.9399 7.93474Z" fill="#FAFAFA"/>
<path d="M78.5276 7.93474C78.5276 7.1072 77.8572 6.43685 77.0297 6.43685C76.2022 6.43685 75.5318 7.1072 75.5318 7.93474C75.5318 8.76166 76.2022 9.43262 77.0297 9.43262C77.8566 9.43262 78.5276 8.76227 78.5276 7.93474Z" fill="#FAFAFA"/>
<path d="M72.1152 7.93474C72.1152 7.1072 71.4449 6.43685 70.6174 6.43685C69.7904 6.43685 69.1195 7.1072 69.1195 7.93474C69.1195 8.76166 69.7898 9.43262 70.6174 9.43262C71.4443 9.43262 72.1152 8.76227 72.1152 7.93474Z" fill="#FAFAFA"/>
<path d="M65.7023 7.93474C65.7023 7.1072 65.032 6.43685 64.2044 6.43685C63.3775 6.43685 62.7066 7.1072 62.7066 7.93474C62.7066 8.76166 63.3769 9.43262 64.2044 9.43262C65.0314 9.43262 65.7023 8.76227 65.7023 7.93474Z" fill="#FAFAFA"/>
<path d="M16.3972 100.778H0V92.3952H16.3972V100.778Z" fill="#FFA02A"/>
<path fill-rule="evenodd" clip-rule="evenodd" d="M91.3529 48.3511H100.021V31.6292H91.3529V31.6292C74.5729 31.6292 60.9703 45.2318 60.9703 62.0118H77.6922C77.6922 54.4674 83.8079 48.3511 91.3529 48.3511V48.3511Z" fill="#FFA02A"/>
</g>
<defs>
<clipPath id="clip0_1428_40285">
<rect width="100" height="100" fill="white" transform="translate(0 0.777588)"/>
</clipPath>
</defs>
</svg>
