<svg width="16" height="18" viewBox="0 0 16 18" fill="none" xmlns="http://www.w3.org/2000/svg">
<path d="M9.38897 1.5939L9.38895 1.59392L9.39207 1.59665L14.3904 5.97853C14.6094 6.17479 14.7844 6.41521 14.9039 6.68396C15.0236 6.95331 15.0848 7.24499 15.0834 7.53974V7.54167V14.8333C15.0834 15.3859 14.8639 15.9158 14.4732 16.3065C14.0825 16.6972 13.5526 16.9167 13.0001 16.9167H3.00008C2.44754 16.9167 1.91764 16.6972 1.52694 16.3065C1.13624 15.9158 0.916746 15.3859 0.916746 14.8333V7.55H0.916759L0.916732 7.54669C0.91438 7.25078 0.975096 6.95776 1.09484 6.68714C1.21432 6.41712 1.38983 6.17558 1.60973 5.97855L6.60808 1.59665L6.6081 1.59667L6.61119 1.5939C6.99315 1.25227 7.48763 1.0634 8.00008 1.0634C8.51253 1.0634 9.00701 1.25227 9.38897 1.5939ZM15.5001 14.8333V7.54167L1.33341 5.66667C1.06872 5.9034 0.857496 6.1938 0.713806 6.51854C0.570115 6.84328 0.497256 7.19491 0.500079 7.55V14.8333C0.500079 15.4964 0.763471 16.1323 1.23231 16.6011C1.70115 17.0699 2.33704 17.3333 3.00008 17.3333H13.0001C13.6631 17.3333 14.299 17.0699 14.7678 16.6011C15.2367 16.1323 15.5001 15.4964 15.5001 14.8333ZM9.66675 16.0833H10.0834V15.6667V11.5C10.0834 11.1685 9.95172 10.8505 9.71729 10.6161C9.48288 10.3817 9.16493 10.25 8.83341 10.25H7.16675C6.83522 10.25 6.51728 10.3817 6.28286 10.6161C6.04844 10.8505 5.91675 11.1685 5.91675 11.5V15.6667V16.0833H6.33341H9.66675ZM10.9167 15.6667V16.0833H11.3334H13.0001C13.3316 16.0833 13.6495 15.9516 13.884 15.7172C14.1184 15.4828 14.2501 15.1649 14.2501 14.8333V7.54167V7.54114C14.2499 7.36366 14.2118 7.18826 14.1386 7.02662C14.0653 6.86497 13.9584 6.72078 13.8251 6.60364L13.8245 6.6031L8.82508 2.22864C8.82492 2.22851 8.82477 2.22837 8.82461 2.22824C8.59657 2.0281 8.30351 1.91773 8.00008 1.91773C7.69665 1.91773 7.40359 2.0281 7.17554 2.22824C7.17539 2.22837 7.17523 2.22851 7.17508 2.22864L2.1757 6.6031L2.17508 6.60364C2.04174 6.72078 1.93488 6.86497 1.8616 7.02662C1.78832 7.18826 1.7503 7.36366 1.75008 7.54114V7.54167V14.8333C1.75008 15.1649 1.88178 15.4828 2.1162 15.7172C2.35062 15.9516 2.66856 16.0833 3.00008 16.0833H4.66675H5.08341V15.6667V11.5C5.08341 10.9475 5.30291 10.4176 5.69361 10.0269C6.08431 9.63616 6.61421 9.41667 7.16675 9.41667H8.83341C9.38595 9.41667 9.91585 9.63616 10.3066 10.0269C10.6973 10.4176 10.9167 10.9475 10.9167 11.5V15.6667Z" fill="black" stroke="#1088C8" stroke-width="0.833333"/>
</svg>
