<svg width="24" height="24" viewBox="0 0 24 24" fill="none" xmlns="http://www.w3.org/2000/svg">
<path d="M18.0003 18C18.3981 18 18.7796 17.842 19.0609 17.5607C19.3422 17.2794 19.5003 16.8978 19.5003 16.5V12.837C19.5003 12.4392 19.3422 12.0576 19.0609 11.7763C18.7796 11.495 18.3981 11.337 18.0003 11.337H15.9183C15.9183 10.8105 15.9498 10.2825 16.0113 9.756C16.1043 9.198 16.2603 8.7015 16.4763 8.268C16.6938 7.833 16.9728 7.4925 17.3148 7.2435C17.6553 6.9645 18.0888 6.825 18.6168 6.825V4.5C17.7483 4.5 16.9893 4.686 16.3368 5.058C15.6899 5.42623 15.1338 5.93468 14.7093 6.546C14.2831 7.21997 13.9691 7.95855 13.7793 8.733C13.588 9.58764 13.4944 10.4612 13.5003 11.337V16.5C13.5003 16.8978 13.6583 17.2794 13.9396 17.5607C14.2209 17.842 14.6024 18 15.0003 18H18.0003ZM9.00026 18C9.39808 18 9.77962 17.842 10.0609 17.5607C10.3422 17.2794 10.5003 16.8978 10.5003 16.5V12.837C10.5003 12.4392 10.3422 12.0576 10.0609 11.7763C9.77962 11.495 9.39808 11.337 9.00026 11.337H6.91826C6.91826 10.8105 6.94976 10.2825 7.01126 9.756C7.10426 9.198 7.26026 8.7015 7.47626 8.268C7.69376 7.833 7.97276 7.4925 8.31476 7.2435C8.65526 6.9645 9.08876 6.825 9.61676 6.825V4.5C8.74826 4.5 7.98926 4.686 7.33676 5.058C6.68994 5.42623 6.13382 5.93468 5.70926 6.546C5.28315 7.21997 4.96908 7.95855 4.77926 8.733C4.58799 9.58764 4.49439 10.4612 4.50026 11.337V16.5C4.50026 16.8978 4.6583 17.2794 4.9396 17.5607C5.2209 17.842 5.60244 18 6.00026 18H9.00026Z" fill="#B5DAEE"/>
</svg>
