<svg width="16" height="16" viewBox="0 0 16 16" fill="none" xmlns="http://www.w3.org/2000/svg">
<path d="M14.6134 7.73329C13.2667 4.60663 10.7334 2.66663 8.00004 2.66663C5.26671 2.66663 2.73338 4.60663 1.38671 7.73329C1.35 7.8174 1.33105 7.90819 1.33105 7.99996C1.33105 8.09173 1.35 8.18251 1.38671 8.26663C2.73338 11.3933 5.26671 13.3333 8.00004 13.3333C10.7334 13.3333 13.2667 11.3933 14.6134 8.26663C14.6501 8.18251 14.669 8.09173 14.669 7.99996C14.669 7.90819 14.6501 7.8174 14.6134 7.73329ZM8.00004 12C5.88671 12 3.88671 10.4733 2.73338 7.99996C3.88671 5.52663 5.88671 3.99996 8.00004 3.99996C10.1134 3.99996 12.1134 5.52663 13.2667 7.99996C12.1134 10.4733 10.1134 12 8.00004 12ZM8.00004 5.33329C7.47263 5.33329 6.95706 5.48969 6.51852 5.78271C6.07999 6.07572 5.7382 6.4922 5.53637 6.97947C5.33453 7.46674 5.28172 8.00292 5.38462 8.5202C5.48751 9.03748 5.74149 9.51264 6.11443 9.88558C6.48737 10.2585 6.96252 10.5125 7.4798 10.6154C7.99709 10.7183 8.53326 10.6655 9.02053 10.4636C9.5078 10.2618 9.92428 9.92001 10.2173 9.48148C10.5103 9.04295 10.6667 8.52738 10.6667 7.99996C10.6667 7.29272 10.3858 6.61444 9.88566 6.11434C9.38557 5.61424 8.70729 5.33329 8.00004 5.33329ZM8.00004 9.33329C7.73634 9.33329 7.47855 9.25509 7.25928 9.10858C7.04002 8.96208 6.86912 8.75384 6.76821 8.5102C6.66729 8.26657 6.64088 7.99848 6.69233 7.73984C6.74378 7.4812 6.87077 7.24362 7.05724 7.05715C7.24371 6.87068 7.48128 6.74369 7.73992 6.69225C7.99857 6.6408 8.26665 6.6672 8.51029 6.76812C8.75392 6.86904 8.96216 7.03993 9.10867 7.2592C9.25518 7.47846 9.33338 7.73625 9.33338 7.99996C9.33338 8.35358 9.1929 8.69272 8.94285 8.94277C8.6928 9.19282 8.35367 9.33329 8.00004 9.33329Z" fill="white"/>
</svg>
