<svg width="20" height="20" viewBox="0 0 20 20" fill="none" xmlns="http://www.w3.org/2000/svg">
<path d="M16.592 12.925H12.817C12.596 12.925 12.384 13.0128 12.2277 13.169C12.0715 13.3253 11.9837 13.5373 11.9837 13.7583C11.9837 13.9793 12.0715 14.1913 12.2277 14.3475C12.384 14.5038 12.596 14.5916 12.817 14.5916H14.817C13.8978 15.5522 12.7123 16.2161 11.413 16.4978C10.1136 16.7795 8.75967 16.6663 7.52514 16.1727C6.29061 15.679 5.23188 14.8275 4.48498 13.7276C3.73809 12.6277 3.33714 11.3295 3.33366 9.99996C3.33366 9.77895 3.24586 9.56698 3.08958 9.4107C2.9333 9.25442 2.72134 9.16663 2.50033 9.16663C2.27931 9.16663 2.06735 9.25442 1.91107 9.4107C1.75479 9.56698 1.66699 9.77895 1.66699 9.99996C1.6714 11.6273 2.15218 13.2177 3.05 14.575C3.94781 15.9322 5.22338 16.9969 6.71928 17.6376C8.21517 18.2784 9.86594 18.4671 11.4678 18.1805C13.0697 17.8939 14.5527 17.1446 15.7337 16.025V17.5C15.7337 17.721 15.8215 17.9329 15.9777 18.0892C16.134 18.2455 16.346 18.3333 16.567 18.3333C16.788 18.3333 17 18.2455 17.1562 18.0892C17.3125 17.9329 17.4003 17.721 17.4003 17.5V13.75C17.3983 13.5347 17.313 13.3285 17.1623 13.1747C17.0116 13.0209 16.8072 12.9314 16.592 12.925ZM10.0003 1.66663C7.86398 1.67272 5.81157 2.49905 4.26699 3.97496V2.49996C4.26699 2.27895 4.1792 2.06698 4.02291 1.9107C3.86663 1.75442 3.65467 1.66663 3.43366 1.66663C3.21265 1.66663 3.00068 1.75442 2.8444 1.9107C2.68812 2.06698 2.60033 2.27895 2.60033 2.49996V6.24996C2.60033 6.47097 2.68812 6.68293 2.8444 6.83922C3.00068 6.9955 3.21265 7.08329 3.43366 7.08329H7.18366C7.40467 7.08329 7.61663 6.9955 7.77291 6.83922C7.92919 6.68293 8.01699 6.47097 8.01699 6.24996C8.01699 6.02895 7.92919 5.81698 7.77291 5.6607C7.61663 5.50442 7.40467 5.41663 7.18366 5.41663H5.18366C6.10238 4.45652 7.28707 3.79288 8.58566 3.51088C9.88425 3.22889 11.2375 3.34141 12.4717 3.83401C13.7058 4.32661 14.7647 5.1768 15.5122 6.27546C16.2597 7.37412 16.6619 8.67111 16.667 9.99996C16.667 10.221 16.7548 10.4329 16.9111 10.5892C17.0674 10.7455 17.2793 10.8333 17.5003 10.8333C17.7213 10.8333 17.9333 10.7455 18.0896 10.5892C18.2459 10.4329 18.3337 10.221 18.3337 9.99996C18.3337 8.90561 18.1181 7.82198 17.6993 6.81093C17.2805 5.79988 16.6667 4.88122 15.8929 4.1074C15.1191 3.33358 14.2004 2.71975 13.1894 2.30096C12.1783 1.88217 11.0947 1.66663 10.0003 1.66663Z" fill="#1088C8"/>
</svg>
