<svg width="20" height="20" viewBox="0 0 20 20" fill="none" xmlns="http://www.w3.org/2000/svg">
<path d="M4.99068 14.6334L4.88332 14.8947L5.0864 15.0912C6.40471 16.3664 8.16629 17.0806 10.0005 17.0834L10.0017 17.0834C11.8359 17.0806 13.5975 16.3664 14.9158 15.0912L15.1189 14.8947L15.0115 14.6334C14.6034 13.6399 13.9092 12.7902 13.0171 12.1922C12.1249 11.5941 11.0751 11.2749 10.0011 11.2749C8.92707 11.2749 7.87729 11.5941 6.98515 12.1922C6.093 12.7902 5.39878 13.6399 4.99068 14.6334ZM12.1886 10.2411L11.7993 10.6826L12.345 10.903C13.6274 11.421 14.7017 12.3497 15.3997 13.5436L15.7594 13.3334L16.1188 13.5443C16.7496 12.4697 17.0829 11.2466 17.0844 10.0005V10C17.0844 8.1214 16.3382 6.31973 15.0098 4.99135C13.6814 3.66296 11.8797 2.91669 10.0011 2.91669C8.12248 2.91669 6.32081 3.66296 4.99243 4.99135C3.66404 6.31973 2.91777 8.1214 2.91777 10L2.91777 10.0005C2.91929 11.2466 3.2526 12.4697 3.88344 13.5443L4.24351 14.1576L4.60247 13.5436C5.30049 12.3497 6.37481 11.421 7.65716 10.903L8.20294 10.6826L7.8136 10.2411C7.44233 9.82011 7.20042 9.30094 7.1169 8.74588C7.03338 8.19083 7.1118 7.62346 7.34274 7.11187C7.57368 6.60027 7.94734 6.16618 8.41887 5.86169C8.89041 5.55719 9.43979 5.39523 10.0011 5.39523C10.5624 5.39523 11.1118 5.55719 11.5833 5.86169C12.0549 6.16618 12.4285 6.60027 12.6595 7.11187C12.8904 7.62346 12.9688 8.19083 12.8853 8.74588C12.8018 9.30094 12.5599 9.82011 12.1886 10.2411ZM5.68036 3.37673C6.96474 2.53579 8.46592 2.08642 10.0011 2.08335C11.5363 2.08642 13.0375 2.53579 14.3218 3.37673C15.6064 4.21782 16.6187 5.41432 17.2354 6.8205C17.8521 8.22668 18.0465 9.78185 17.795 11.2966C17.5436 12.8111 16.8573 14.2197 15.8196 15.3511C15.0783 16.1546 14.1786 16.7958 13.1773 17.2344C12.1759 17.673 11.0944 17.8995 10.0011 17.8995C8.90779 17.8995 7.82634 17.673 6.82488 17.2344C5.82357 16.7958 4.92394 16.1546 4.18267 15.3512C3.14496 14.2198 2.4586 12.8111 2.20716 11.2966C1.95569 9.78185 2.15013 8.22668 2.7668 6.8205C3.38347 5.41432 4.39576 4.21782 5.68036 3.37673ZM8.26887 7.17592C8.03995 7.51852 7.91777 7.92131 7.91777 8.33335C7.91777 8.88589 8.13726 9.41579 8.52796 9.80649C8.91866 10.1972 9.44856 10.4167 10.0011 10.4167C10.4131 10.4167 10.8159 10.2945 11.1585 10.0656C11.5011 9.83666 11.7682 9.51129 11.9258 9.13061C12.0835 8.74993 12.1248 8.33104 12.0444 7.92692C11.964 7.52279 11.7656 7.15157 11.4742 6.86021C11.1829 6.56886 10.8117 6.37044 10.4075 6.29005C10.0034 6.20966 9.58452 6.25092 9.20384 6.4086C8.82316 6.56629 8.49779 6.83331 8.26887 7.17592Z" fill="black" stroke="#1088C8" stroke-width="0.833333"/>
</svg>
