<svg width="36" height="36" viewBox="0 0 36 36" fill="none" xmlns="http://www.w3.org/2000/svg">
<rect width="36" height="36" rx="18" fill="#F89D3C"/>
<path d="M20.5003 17.1666H18.8337V13.8333C18.8337 13.6123 18.7459 13.4003 18.5896 13.244C18.4333 13.0878 18.2213 13 18.0003 13C17.7793 13 17.5674 13.0878 17.4111 13.244C17.2548 13.4003 17.167 13.6123 17.167 13.8333V18C17.167 18.221 17.2548 18.4329 17.4111 18.5892C17.5674 18.7455 17.7793 18.8333 18.0003 18.8333H20.5003C20.7213 18.8333 20.9333 18.7455 21.0896 18.5892C21.2459 18.4329 21.3337 18.221 21.3337 18C21.3337 17.7789 21.2459 17.567 21.0896 17.4107C20.9333 17.2544 20.7213 17.1666 20.5003 17.1666ZM18.0003 9.66663C16.3522 9.66663 14.741 10.1554 13.3706 11.071C12.0002 11.9867 10.9321 13.2882 10.3013 14.8109C9.6706 16.3336 9.50558 18.0092 9.82712 19.6257C10.1487 21.2422 10.9423 22.7271 12.1078 23.8925C13.2732 25.058 14.7581 25.8516 16.3746 26.1732C17.9911 26.4947 19.6666 26.3297 21.1894 25.699C22.7121 25.0682 24.0136 24.0001 24.9292 22.6297C25.8449 21.2593 26.3337 19.6481 26.3337 18C26.3337 16.9056 26.1181 15.822 25.6993 14.8109C25.2805 13.7999 24.6667 12.8812 23.8929 12.1074C23.1191 11.3336 22.2004 10.7198 21.1894 10.301C20.1783 9.88217 19.0947 9.66663 18.0003 9.66663ZM18.0003 24.6666C16.6818 24.6666 15.3929 24.2756 14.2965 23.5431C13.2002 22.8105 12.3457 21.7694 11.8411 20.5512C11.3365 19.333 11.2045 17.9926 11.4618 16.6994C11.719 15.4062 12.3539 14.2183 13.2863 13.2859C14.2186 12.3536 15.4065 11.7186 16.6997 11.4614C17.9929 11.2042 19.3334 11.3362 20.5516 11.8408C21.7697 12.3453 22.8109 13.1998 23.5435 14.2962C24.276 15.3925 24.667 16.6814 24.667 18C24.667 19.7681 23.9646 21.4638 22.7144 22.714C21.4641 23.9642 19.7684 24.6666 18.0003 24.6666Z" fill="#FAFAFA"/>
</svg>
